<?xml version="1.0" encoding="iso-8859-1"?>
<!-- Generator: Adobe Illustrator 15.0.0, SVG Export Plug-In . SVG Version: 6.00 Build 0)  -->
<!DOCTYPE svg PUBLIC "-//W3C//DTD SVG 1.1//EN" "http://www.w3.org/Graphics/SVG/1.1/DTD/svg11.dtd">
<svg version="1.1" id="Layer_1" xmlns="http://www.w3.org/2000/svg" xmlns:xlink="http://www.w3.org/1999/xlink" x="0px" y="0px"
	 width="40.367px" height="40.973px" viewBox="0 0 40.367 40.973" style="enable-background:new 0 0 40.367 40.973;"
	 xml:space="preserve">
<g id="_x30_1">
	<path style="fill:#83A5B3;" d="M22.594,1.79c0-0.988-0.801-1.79-1.789-1.79c-0.988,0-1.79,0.802-1.791,1.79l0.001,3.977
		c0,0.988,0.802,1.791,1.79,1.791c0.988,0,1.789-0.803,1.789-1.791V1.79z"/>
	<path style="fill:#83A5B3;" d="M8.632,6.078c-0.699-0.699-1.833-0.699-2.532,0c-0.699,0.699-0.699,1.833,0,2.532l2.812,2.811
		c0.7,0.699,1.833,0.699,2.532,0c0.699-0.698,0.699-1.832,0-2.53L8.632,6.078z"/>
	<path style="fill:#83A5B3;" d="M1.791,18.377C0.802,18.377,0,19.179,0,20.167c0,0.988,0.803,1.79,1.79,1.79h3.977
		c0.988,0,1.79-0.802,1.79-1.791c0-0.987-0.802-1.789-1.79-1.789H1.791z"/>
	<path style="fill:#83A5B3;" d="M6.078,32.944c-0.699,0.699-0.699,1.832,0,2.531c0.7,0.698,1.832,0.698,2.532,0l2.811-2.812
		c0.7-0.699,0.7-1.833,0-2.531c-0.698-0.697-1.833-0.697-2.531,0.001L6.078,32.944z"/>
	<path style="fill:#83A5B3;" d="M18.982,39.181c0,0.988,0.801,1.791,1.79,1.791c0.988-0.002,1.791-0.803,1.791-1.791v-3.977
		c0-0.988-0.803-1.79-1.791-1.79c-0.987,0-1.79,0.803-1.79,1.789V39.181z"/>
	<path style="fill:#83A5B3;" d="M32.945,35.499c0.697,0.699,1.832,0.699,2.531,0c0.696-0.699,0.696-1.832,0-2.531l-2.812-2.812
		c-0.699-0.698-1.832-0.698-2.531,0c-0.699,0.699-0.699,1.832,0,2.53L32.945,35.499z"/>
	<path style="fill:#83A5B3;" d="M38.576,22.595c0.99,0,1.791-0.803,1.791-1.79c0-0.989-0.801-1.791-1.789-1.791h-3.977
		c-0.988,0-1.791,0.801-1.791,1.791c0,0.987,0.803,1.79,1.791,1.788L38.576,22.595z"/>
	<path style="fill:#83A5B3;" d="M35.498,8.632c0.701-0.698,0.701-1.833,0-2.53c-0.699-0.699-1.83-0.699-2.531,0l-2.811,2.812
		c-0.699,0.699-0.699,1.831,0,2.531c0.699,0.699,1.832,0.699,2.531,0L35.498,8.632z"/>
	<path style="fill:#83A5B3;" d="M20.805,9.7c-6.145,0-11.125,4.981-11.125,11.127s4.981,11.127,11.125,11.127
		c6.146,0,11.127-4.981,11.127-11.127C31.932,14.682,26.951,9.7,20.805,9.7z M20.805,28.401c-4.184,0-7.576-3.392-7.576-7.574
		s3.392-7.576,7.576-7.576c4.185,0,7.576,3.394,7.576,7.576S24.988,28.401,20.805,28.401z"/>
</g>
</svg>
