<?xml version="1.0" encoding="iso-8859-1"?>
<!-- Generator: Adobe Illustrator 15.0.0, SVG Export Plug-In . SVG Version: 6.00 Build 0)  -->
<!DOCTYPE svg PUBLIC "-//W3C//DTD SVG 1.1//EN" "http://www.w3.org/Graphics/SVG/1.1/DTD/svg11.dtd">
<svg version="1.1" id="Layer_1" xmlns="http://www.w3.org/2000/svg" xmlns:xlink="http://www.w3.org/1999/xlink" x="0px" y="0px"
	 width="26.568px" height="28.475px" viewBox="0 0 26.568 28.475" style="enable-background:new 0 0 26.568 28.475;"
	 xml:space="preserve">
<path id="_x30_2" style="fill:#83A5B3;" d="M0.07,12.568C-0.703,20.506,5.035,27.59,12.969,28.4
	c4.913,0.502,9.47-1.555,12.474-5.022c2.785-3.197-0.33-3.181-1.471-3.299C12.232,18.537,10.314,6.86,12.146,2.131
	c0.582-2.273-0.621-2.284-1.576-2.009C10.57,0.122,0.969,2.733,0.07,12.568z M13.309,25.068C7.215,24.445,2.781,19,3.402,12.908
	c0.354-3.454,2.285-6.474,4.979-8.242c-1.326,7.823,4.613,16.961,13.105,17.854C19.325,24.17,16.228,25.365,13.309,25.068z"/>
</svg>
