<?xml version="1.0" encoding="iso-8859-1"?>
<!-- Generator: Adobe Illustrator 15.0.0, SVG Export Plug-In . SVG Version: 6.00 Build 0)  -->
<!DOCTYPE svg PUBLIC "-//W3C//DTD SVG 1.1//EN" "http://www.w3.org/Graphics/SVG/1.1/DTD/svg11.dtd">
<svg version="1.1" id="Layer_1" xmlns="http://www.w3.org/2000/svg" xmlns:xlink="http://www.w3.org/1999/xlink" x="0px" y="0px"
	 width="43.343px" height="25.562px" viewBox="0 0 43.343 25.562" style="enable-background:new 0 0 43.343 25.562;"
	 xml:space="preserve">
<path id="_x30_4" style="fill:#83A5B3;" d="M35.771,25.562c4.182,0,7.57-3.392,7.57-7.571c0,0,0.039-7.564-7.92-7.564
	C33.701,3.34,27.07,2.981,25.21,3.481C23.193,1.474,19.836,0,16.441,0C9.711,0,4.193,5.205,3.697,11.81
	C1.488,13.083,0,15.464,0,18.195c0,4.071,3.297,7.368,7.365,7.368L35.771,25.562L35.771,25.562z M8.004,22.742
	c-2.752,0-4.781-1.991-4.781-4.567c0-2.104,1.336-3.948,3.424-4.579c0.248-9.943,8.984-10.451,9.955-10.451
	c2.885,0,5.748,1.415,7.59,3.51c3.728-1.224,8.83,1.647,8.261,7.201c1.452-0.59,2.907-0.543,3.323-0.543
	c2.088,0,4.606,1.826,4.606,4.821c0,2.547-2.063,4.608-4.606,4.608H8.004z"/>
</svg>
