<?xml version="1.0" encoding="iso-8859-1"?>
<!-- Generator: Adobe Illustrator 15.0.0, SVG Export Plug-In . SVG Version: 6.00 Build 0)  -->
<!DOCTYPE svg PUBLIC "-//W3C//DTD SVG 1.1//EN" "http://www.w3.org/Graphics/SVG/1.1/DTD/svg11.dtd">
<svg version="1.1" id="Layer_1" xmlns="http://www.w3.org/2000/svg" xmlns:xlink="http://www.w3.org/1999/xlink" x="0px" y="0px"
	 width="54.428px" height="42.309px" viewBox="0 0 54.428 42.309" style="enable-background:new 0 0 54.428 42.309;"
	 xml:space="preserve">
<g id="_x31_1">
	<path style="fill:#83A5B3;" d="M38.617,1.49c0-0.824-0.669-1.49-1.492-1.49c-0.822,0-1.49,0.666-1.49,1.49v3.312
		c0,0.823,0.668,1.49,1.49,1.49c0.823,0,1.492-0.667,1.492-1.49V1.49z"/>
	<path style="fill:#83A5B3;" d="M26.985,5.061c-0.581-0.58-1.524-0.58-2.107,0c-0.582,0.583-0.582,1.526,0,2.108l2.342,2.343
		c0.582,0.583,1.527,0.583,2.109,0c0.581-0.583,0.581-1.525-0.001-2.108L26.985,5.061z"/>
	<path style="fill:#83A5B3;" d="M47.238,29.568c0.58,0.584,1.525,0.584,2.108,0.001s0.583-1.526,0-2.108l-2.343-2.342
		c-0.582-0.582-1.525-0.582-2.107,0s-0.582,1.525,0,2.107L47.238,29.568z"/>
	<path style="fill:#83A5B3;" d="M52.936,18.82c0.824,0,1.492-0.668,1.492-1.491s-0.668-1.491-1.492-1.491h-3.311
		c-0.822,0-1.492,0.668-1.492,1.491s0.67,1.491,1.492,1.49L52.936,18.82z"/>
	<path style="fill:#83A5B3;" d="M49.365,7.189c0.581-0.582,0.584-1.527,0-2.108c-0.58-0.583-1.525-0.583-2.108,0l-2.341,2.342
		c-0.584,0.582-0.584,1.526,0,2.108c0.582,0.582,1.524,0.582,2.106,0L49.365,7.189z"/>
	<path style="fill:#83A5B3;" d="M46.394,17.348c0-5.119-4.148-9.27-9.269-9.27c-3.025,0-5.711,1.45-7.402,3.692
		c-1.902-0.676-3.727-0.627-4.57-0.4c-2.012-2.002-5.361-3.473-8.748-3.473c-6.717,0-12.22,5.191-12.715,11.783
		C1.485,20.951,0,23.326,0,26.052c0,4.062,3.291,7.352,7.349,7.352H8.34c0.687,0,1.235-0.69,1.235-1.408
		c0-0.777-0.632-1.406-1.407-1.406H7.985c-2.745,0-4.771-1.985-4.771-4.557c0-2.1,1.333-3.939,3.417-4.569
		c0.249-9.921,8.963-10.427,9.932-10.427c2.879,0,5.736,1.412,7.573,3.503c3.716-1.222,8.811,1.645,8.241,7.185
		c1.449-0.589,2.901-0.542,3.316-0.542c2.08,0,4.598,1.821,4.598,4.811c0,2.539-2.061,4.598-4.598,4.598h-0.202
		c-0.776,0-1.407,0.632-1.407,1.408s0.631,1.406,1.407,1.406h0.196c4.173,0,7.555-3.383,7.555-7.555c0,0,0.002-0.572-0.158-1.401
		C45.107,22.746,46.394,20.197,46.394,17.348z M41.91,21.459c-1.078-1.66-3.033-3.158-6.57-3.158
		c-0.574-2.363-1.696-3.979-3.006-5.061c1.158-1.349,2.875-2.203,4.791-2.203c3.484,0,6.311,2.825,6.311,6.312
		C43.436,18.918,42.861,20.354,41.91,21.459z"/>
	<path style="fill:#83A5B3;" d="M46.994,25.154c-0.584-0.582-1.528-0.582-2.113,0c-0.582,0.583-0.582,1.529,0,2.111l2.346,2.345
		c0.583,0.584,1.528,0.584,2.112,0.001c0.581-0.583,0.581-1.529,0-2.111L46.994,25.154z"/>
	<path style="fill:#83A5B3;" d="M52.934,15.86h-3.315c-0.824,0-1.492,0.669-1.492,1.493c0,0.825,0.668,1.492,1.492,1.492h3.315
		c0.826,0,1.494-0.667,1.494-1.492C54.428,16.529,53.76,15.86,52.934,15.86z"/>
	<path style="fill:#83A5B3;" d="M16.154,31.272c0.413-0.715,0.167-1.628-0.547-2.04c-0.713-0.412-1.627-0.167-2.039,0.547
		l-1.657,2.872c-0.413,0.714-0.167,1.626,0.547,2.039s1.627,0.167,2.04-0.546L16.154,31.272z"/>
	<path style="fill:#83A5B3;" d="M23.893,31.272c0.412-0.715,0.167-1.628-0.547-2.04c-0.715-0.412-1.628-0.167-2.04,0.547
		l-1.658,2.872c-0.412,0.714-0.167,1.626,0.546,2.039c0.714,0.413,1.628,0.167,2.04-0.546L23.893,31.272z"/>
	<path style="fill:#83A5B3;" d="M17.042,38.742c0.412-0.715,0.167-1.627-0.547-2.041c-0.714-0.411-1.627-0.166-2.04,0.547
		l-1.658,2.872c-0.413,0.715-0.168,1.628,0.546,2.04c0.715,0.412,1.627,0.168,2.04-0.546L17.042,38.742z"/>
	<path style="fill:#83A5B3;" d="M31.63,31.272c0.412-0.715,0.168-1.628-0.546-2.04s-1.627-0.167-2.04,0.547l-1.657,2.872
		c-0.413,0.714-0.168,1.626,0.546,2.039s1.627,0.167,2.039-0.546L31.63,31.272z"/>
	<path style="fill:#83A5B3;" d="M24.781,38.742c0.411-0.715,0.165-1.627-0.548-2.041c-0.715-0.411-1.628-0.166-2.04,0.547
		l-1.658,2.872c-0.412,0.715-0.167,1.628,0.548,2.04c0.714,0.412,1.628,0.168,2.038-0.546L24.781,38.742z"/>
</g>
</svg>
