<?xml version="1.0" encoding="iso-8859-1"?>
<!-- Generator: Adobe Illustrator 15.0.0, SVG Export Plug-In . SVG Version: 6.00 Build 0)  -->
<!DOCTYPE svg PUBLIC "-//W3C//DTD SVG 1.1//EN" "http://www.w3.org/Graphics/SVG/1.1/DTD/svg11.dtd">
<svg version="1.1" id="Layer_1" xmlns="http://www.w3.org/2000/svg" xmlns:xlink="http://www.w3.org/1999/xlink" x="0px" y="0px"
	 width="50.936px" height="50.695px" viewBox="0 0 50.936 50.695" style="enable-background:new 0 0 50.936 50.695;"
	 xml:space="preserve">
<g id="_x33_2">
	<path style="fill:#83A5B3;" d="M28.486,11.638c-1.414-0.294-2.658-0.224-3.312-0.049c-2.014-2.005-5.364-3.477-8.756-3.477
		c-6.723,0-12.229,5.197-12.727,11.794c-2.205,1.27-3.693,3.647-3.693,6.375c0,4.063,3.295,7.354,7.357,7.354h1.133
		c0.695,0,1.236-0.689,1.236-1.408c0-0.776-0.632-1.408-1.408-1.408H7.992c-2.746,0-4.773-1.986-4.773-4.559
		c0-2.102,1.334-3.945,3.418-4.572c0.248-9.932,8.972-10.438,9.941-10.438c2.881,0,5.74,1.414,7.578,3.506
		c3.72-1.222,8.816,1.646,8.248,7.189c1.451-0.589,2.904-0.542,3.318-0.542c2.084,0,4.602,1.822,4.602,4.814
		c0,2.541-2.061,4.6-4.602,4.6h-0.23c-0.777,0-1.408,0.634-1.408,1.41c0,0.777,0.631,1.406,1.408,1.406h0.227
		c4.178,0,7.562-3.384,7.562-7.561c0,0,0.006-0.974-0.355-2.22c2.779-0.524,5.258-2.008,7.07-4.1
		c2.354-2.702-0.33-2.646-1.244-2.788c-5.391-0.663-12.676-6.28-9.998-15.171c0.582-1.908-0.523-1.93-1.33-1.697
		C37.421,0.102,29.011,1.966,28.486,11.638z M35.572,3.941c-1.238,6.407,3.898,14.338,11.076,15.093
		c-1.377,1.052-3.207,1.885-5.082,2.123c-1.139-1.438-3.037-2.633-6.197-2.633c-0.719-2.954-2.289-4.737-4.014-5.775
		C30.923,7.762,34.029,4.887,35.572,3.941z"/>
	<g>
		<path style="fill:#83A5B3;" d="M16.802,31.508c0.414-0.715,0.168-1.629-0.547-2.042s-1.629-0.169-2.041,0.546l-1.66,2.875
			c-0.411,0.715-0.168,1.629,0.548,2.041c0.715,0.413,1.631,0.168,2.041-0.546L16.802,31.508z"/>
		<path style="fill:#83A5B3;" d="M12.269,38.93c0.414-0.715,0.168-1.629-0.545-2.041c-0.718-0.413-1.632-0.168-2.043,0.547
			l-1.66,2.874c-0.414,0.716-0.166,1.63,0.549,2.042s1.627,0.168,2.039-0.549L12.269,38.93z"/>
		<path style="fill:#83A5B3;" d="M23.841,31.508c0.412-0.715,0.168-1.629-0.545-2.042c-0.715-0.413-1.629-0.169-2.043,0.546
			l-1.66,2.875c-0.414,0.715-0.168,1.629,0.548,2.041c0.717,0.413,1.629,0.168,2.043-0.546L23.841,31.508z"/>
		<path style="fill:#83A5B3;" d="M19.31,39.289c0.412-0.715,0.166-1.628-0.552-2.041c-0.713-0.412-1.627-0.168-2.039,0.549
			L15.06,40.67c-0.41,0.715-0.168,1.629,0.547,2.041s1.629,0.168,2.041-0.546L19.31,39.289z"/>
		<path style="fill:#83A5B3;" d="M14.812,47.073c0.414-0.717,0.168-1.631-0.547-2.042c-0.716-0.412-1.63-0.166-2.041,0.547
			l-1.658,2.875c-0.414,0.715-0.17,1.629,0.545,2.041c0.715,0.414,1.629,0.168,2.041-0.548L14.812,47.073z"/>
		<path style="fill:#83A5B3;" d="M30.88,31.508c0.414-0.715,0.168-1.629-0.547-2.042s-1.629-0.169-2.043,0.546l-1.658,2.875
			c-0.412,0.715-0.168,1.629,0.549,2.041c0.715,0.413,1.627,0.168,2.039-0.546L30.88,31.508z"/>
		<path style="fill:#83A5B3;" d="M26.347,39.289c0.414-0.715,0.168-1.628-0.547-2.041c-0.713-0.412-1.629-0.168-2.041,0.549
			l-1.659,2.873c-0.414,0.715-0.168,1.629,0.549,2.041c0.713,0.412,1.627,0.168,2.039-0.546L26.347,39.289z"/>
	</g>
</g>
</svg>
