<?xml version="1.0" encoding="iso-8859-1"?>
<!-- Generator: Adobe Illustrator 15.0.0, SVG Export Plug-In . SVG Version: 6.00 Build 0)  -->
<!DOCTYPE svg PUBLIC "-//W3C//DTD SVG 1.1//EN" "http://www.w3.org/Graphics/SVG/1.1/DTD/svg11.dtd">
<svg version="1.1" id="Layer_1" xmlns="http://www.w3.org/2000/svg" xmlns:xlink="http://www.w3.org/1999/xlink" x="0px" y="0px"
	 width="50.936px" height="47.368px" viewBox="0 0 50.936 47.368" style="enable-background:new 0 0 50.936 47.368;"
	 xml:space="preserve">
<g id="_x33_7">
	<path style="fill:#83A5B3;" d="M19.449,39.733c-0.281,0.443-5.025,7.635-5.025,7.635s8.615-7.484,8.931-7.758
		c0.537-0.47,0.498-0.596,0.123-1.289c-0.269-0.494-1.162-2.164-1.386-2.562c-0.26-0.457-0.297-0.446-0.032-0.875
		c0.262-0.426,5.498-9.209,5.498-9.209s-8.418,7.228-9.111,7.828c-0.986,0.854-0.973,1.017-0.459,2.131
		c0.262,0.568,1.316,2.837,1.518,3.214C19.713,39.249,19.771,39.231,19.449,39.733z"/>
	<path style="fill:#83A5B3;" d="M28.486,11.636c-1.414-0.293-2.66-0.224-3.312-0.048c-2.016-2.003-5.366-3.477-8.756-3.477
		c-6.725,0-12.229,5.198-12.729,11.794C1.484,21.174,0,23.553,0,26.282c0,4.061,3.293,7.354,7.354,7.354h6.996
		c0.692,0,1.233-0.689,1.233-1.408c0-0.777-0.629-1.408-1.405-1.408H7.992c-2.748,0-4.775-1.988-4.775-4.561
		c0-2.1,1.334-3.943,3.418-4.572c0.25-9.928,8.974-10.437,9.941-10.437c2.881,0,5.74,1.414,7.578,3.507
		c3.721-1.223,8.818,1.645,8.248,7.19c1.451-0.589,2.904-0.542,3.322-0.542c2.082,0,4.6,1.822,4.6,4.813
		c0,2.541-2.061,4.601-4.6,4.601h-7.238c-0.779,0-1.41,0.634-1.41,1.41s0.631,1.405,1.41,1.405h7.229
		c4.179,0,7.562-3.385,7.562-7.561c0,0,0.008-0.973-0.355-2.221c2.779-0.523,5.261-2.007,7.07-4.099
		c2.354-2.702-0.33-2.644-1.242-2.787c-5.393-0.663-12.676-6.28-9.998-15.171c0.58-1.908-0.522-1.929-1.332-1.697
		C37.42,0.101,29.01,1.966,28.486,11.636z M35.572,3.94c-1.24,6.406,3.898,14.337,11.076,15.092
		c-1.379,1.053-3.209,1.885-5.082,2.122c-1.142-1.437-3.037-2.632-6.197-2.632c-0.719-2.954-2.291-4.737-4.014-5.775
		C30.924,7.761,34.027,4.886,35.572,3.94z"/>
</g>
</svg>
