<?xml version="1.0" encoding="iso-8859-1"?>
<!-- Generator: Adobe Illustrator 15.0.0, SVG Export Plug-In . SVG Version: 6.00 Build 0)  -->
<!DOCTYPE svg PUBLIC "-//W3C//DTD SVG 1.1//EN" "http://www.w3.org/Graphics/SVG/1.1/DTD/svg11.dtd">
<svg version="1.1" id="Layer_1" xmlns="http://www.w3.org/2000/svg" xmlns:xlink="http://www.w3.org/1999/xlink" x="0px" y="0px"
	 width="43.275px" height="36.589px" viewBox="0 0 43.275 36.589" style="enable-background:new 0 0 43.275 36.589;"
	 xml:space="preserve">
<g id="_x30_9">
	<path style="fill:#83A5B3;" d="M32.887,31.425c0.825,0,1.495-0.67,1.495-1.496s-0.67-1.496-1.495-1.496H5.111
		c-0.828,0-1.496,0.67-1.496,1.496s0.668,1.496,1.496,1.496H32.887z"/>
	<path style="fill:#83A5B3;" d="M38.428,36.634c0.825,0,1.495-0.67,1.495-1.496c-0.002-0.826-0.67-1.496-1.495-1.496H10.65
		c-0.826,0-1.498,0.67-1.498,1.496s0.672,1.496,1.498,1.496H38.428z"/>
	<path style="fill:#83A5B3;" d="M35.715,25.478c4.179,0,7.562-3.385,7.562-7.561c0,0,0.039-7.552-7.908-7.552
		c-1.72-7.075-8.339-7.434-10.196-6.935c-2.014-2.004-5.366-3.476-8.756-3.476c-6.721,0-12.229,5.197-12.727,11.792
		C1.484,13.017,0,15.396,0,18.122c0,4.062,3.291,7.355,7.354,7.355L35.715,25.478L35.715,25.478z M7.99,22.662
		c-2.748,0-4.773-1.988-4.773-4.561c0-2.101,1.334-3.943,3.418-4.572C6.885,3.6,15.605,3.093,16.574,3.093
		c2.883,0,5.74,1.413,7.582,3.505c3.717-1.222,8.814,1.646,8.244,7.19c1.451-0.588,2.906-0.541,3.32-0.541
		c2.084,0,4.602,1.822,4.602,4.813c0,2.542-2.061,4.602-4.602,4.602H7.99z"/>
</g>
</svg>
