<?xml version="1.0" encoding="iso-8859-1"?>
<!-- Generator: Adobe Illustrator 15.0.0, SVG Export Plug-In . SVG Version: 6.00 Build 0)  -->
<!DOCTYPE svg PUBLIC "-//W3C//DTD SVG 1.1//EN" "http://www.w3.org/Graphics/SVG/1.1/DTD/svg11.dtd">
<svg version="1.1" id="Layer_1" xmlns="http://www.w3.org/2000/svg" xmlns:xlink="http://www.w3.org/1999/xlink" x="0px" y="0px"
	 width="54.682px" height="33.525px" viewBox="0 0 54.682 33.525" style="enable-background:new 0 0 54.682 33.525;"
	 xml:space="preserve">
<g id="_x30_3">
	<path style="fill:#83A5B3;" d="M37.252,6.341c0.832,0,1.502-0.673,1.502-1.502V1.502c0-0.83-0.67-1.502-1.502-1.502
		c-0.828,0-1.502,0.673-1.502,1.502v3.336C35.75,5.668,36.424,6.341,37.252,6.341z"/>
	<path style="fill:#83A5B3;" d="M27.273,9.583c0.586,0.586,1.537,0.586,2.125,0c0.586-0.587,0.586-1.538,0-2.124L27.039,5.1
		c-0.586-0.587-1.539-0.587-2.125,0s-0.586,1.538,0,2.124L27.273,9.583z"/>
	<path style="fill:#83A5B3;" d="M47.203,25.305c-0.586-0.587-1.537-0.587-2.123,0c-0.586,0.586-0.586,1.536,0,2.123l2.358,2.358
		c0.586,0.588,1.537,0.588,2.123,0c0.586-0.586,0.586-1.537,0-2.123L47.203,25.305z"/>
	<path style="fill:#83A5B3;" d="M53.18,15.955h-3.336c-0.83,0-1.504,0.674-1.504,1.502c0,0.83,0.674,1.502,1.504,1.502h3.336
		c0.828,0,1.502-0.672,1.502-1.502C54.682,16.628,54.008,15.955,53.18,15.955z"/>
	<path style="fill:#83A5B3;" d="M47.223,9.603l2.359-2.359c0.588-0.587,0.588-1.539,0-2.125c-0.586-0.587-1.537-0.587-2.125,0
		L45.1,7.478c-0.586,0.586-0.586,1.538,0,2.125C45.686,10.189,46.637,10.189,47.223,9.603z"/>
	<path style="fill:#83A5B3;" d="M46.59,17.476c0-5.156-4.182-9.336-9.338-9.336c-3.027,0-5.715,1.443-7.422,3.678
		c-1.908-0.678-3.74-0.629-4.586-0.4c-2.021-2.011-5.382-3.486-8.779-3.486c-6.74,0-12.266,5.211-12.762,11.824
		C1.492,21.029,0,23.416,0,26.15c0,4.074,3.303,7.375,7.377,7.375h28.438c4.188,0,7.582-3.396,7.582-7.582
		c0,0,0.002-0.535-0.145-1.32C45.293,22.91,46.59,20.345,46.59,17.476z M35.824,30.701H8.016c-2.756,0-4.789-1.992-4.789-4.572
		c0-2.104,1.34-3.953,3.431-4.586c0.247-9.956,8.995-10.463,9.967-10.463c2.889,0,5.758,1.416,7.6,3.514
		c3.73-1.225,8.842,1.65,8.271,7.212c1.455-0.591,2.912-0.546,3.33-0.546c2.086,0,4.61,1.828,4.61,4.828
		C40.436,28.637,38.369,30.701,35.824,30.701z M35.467,18.371c-0.574-2.367-1.697-3.983-3.006-5.07
		c1.166-1.336,2.879-2.182,4.791-2.182c3.512,0,6.354,2.848,6.354,6.357c0,1.567-0.569,3.006-1.514,4.115
		C39.859,18.056,35.467,18.371,35.467,18.371z"/>
</g>
</svg>
