<?xml version="1.0" encoding="iso-8859-1"?>
<!-- Generator: Adobe Illustrator 15.0.0, SVG Export Plug-In . SVG Version: 6.00 Build 0)  -->
<!DOCTYPE svg PUBLIC "-//W3C//DTD SVG 1.1//EN" "http://www.w3.org/Graphics/SVG/1.1/DTD/svg11.dtd">
<svg version="1.1" id="Layer_1" xmlns="http://www.w3.org/2000/svg" xmlns:xlink="http://www.w3.org/1999/xlink" x="0px" y="0px"
	 width="52.045px" height="26.648px" viewBox="0 0 52.045 26.648" style="enable-background:new 0 0 52.045 26.648;"
	 xml:space="preserve">
<path id="_x30_6" style="fill:#83A5B3;" d="M46.119,7.799c-1.287-5.301-6.246-5.569-7.638-5.195C36.976,1.102,34.463,0,31.924,0
	c-3.155,0-5.957,1.531-7.699,3.892c-2.029-1.593-4.926-2.693-7.854-2.693c-6.703,0-12.195,5.182-12.689,11.76
	C1.482,14.223,0,16.595,0,19.315c0,4.052,3.283,7.334,7.334,7.334h28.281c4.161,0,7.534-3.371,7.541-7.53h3.225
	c3.127,0,5.664-2.535,5.664-5.663C52.045,13.456,52.071,7.799,46.119,7.799z M35.621,23.841H7.969c-2.738,0-4.76-1.982-4.76-4.547
	c0-2.094,1.33-3.933,3.41-4.56c0.246-9.9,8.943-10.406,9.91-10.406c2.873,0,5.725,1.408,7.559,3.495
	c3.709-1.219,8.791,1.643,8.224,7.17c1.446-0.586,2.896-0.541,3.311-0.541c2.076,0,4.588,1.818,4.588,4.801
	C40.209,21.788,38.153,23.841,35.621,23.841z M46.385,17.009h-3.553c-0.615-2.228-2.396-5.429-7.563-5.429
	c-1.361-5.611-5.816-6.986-8.515-7.063c2.031-2.011,4.83-2.165,5.289-2.165c2.158,0,4.299,1.059,5.679,2.625
	c2.784-0.915,6.604,1.232,6.176,5.386c1.088-0.439,2.178-0.405,2.487-0.405c1.56,0,3.445,1.366,3.445,3.605
	C49.83,15.467,48.287,17.009,46.385,17.009z"/>
</svg>
