<?xml version="1.0" encoding="iso-8859-1"?>
<!-- Generator: Adobe Illustrator 15.0.0, SVG Export Plug-In . SVG Version: 6.00 Build 0)  -->
<!DOCTYPE svg PUBLIC "-//W3C//DTD SVG 1.1//EN" "http://www.w3.org/Graphics/SVG/1.1/DTD/svg11.dtd">
<svg version="1.1" id="Layer_1" xmlns="http://www.w3.org/2000/svg" xmlns:xlink="http://www.w3.org/1999/xlink" x="0px" y="0px"
	 width="50.936px" height="41.846px" viewBox="0 0 50.936 41.846" style="enable-background:new 0 0 50.936 41.846;"
	 xml:space="preserve">
<g id="_x33_5">
	<g>
		<path style="fill:#83A5B3;" d="M24.075,32.76l-0.948-0.547l0.948-0.547c0.326-0.188,0.438-0.606,0.248-0.934
			c-0.189-0.328-0.608-0.438-0.933-0.25l-0.946,0.547v-1.094c0-0.377-0.306-0.684-0.685-0.684c-0.377,0-0.682,0.307-0.682,0.684
			v1.094l-0.947-0.547c-0.33-0.189-0.746-0.076-0.934,0.25c-0.189,0.326-0.078,0.744,0.25,0.934l0.944,0.547l-0.944,0.547
			c-0.328,0.189-0.439,0.607-0.25,0.934c0.188,0.327,0.604,0.438,0.934,0.25l0.947-0.546v1.093c0,0.379,0.305,0.684,0.682,0.684
			c0.379,0,0.685-0.305,0.685-0.684v-1.093l0.946,0.546c0.324,0.188,0.744,0.077,0.933-0.25
			C24.512,33.368,24.401,32.95,24.075,32.76z"/>
		<path style="fill:#83A5B3;" d="M31.499,32.76l-0.947-0.547l0.947-0.547c0.326-0.188,0.438-0.606,0.25-0.934
			c-0.189-0.328-0.609-0.438-0.934-0.25l-0.947,0.547v-1.094c0-0.377-0.307-0.684-0.682-0.684c-0.381,0-0.688,0.307-0.688,0.684
			v1.094l-0.949-0.547c-0.322-0.189-0.738-0.076-0.932,0.25c-0.188,0.326-0.074,0.744,0.25,0.934l0.949,0.547l-0.949,0.547
			c-0.324,0.189-0.438,0.607-0.25,0.934c0.189,0.327,0.607,0.438,0.932,0.25l0.949-0.546v1.093c0,0.379,0.307,0.684,0.688,0.684
			c0.375,0,0.682-0.305,0.682-0.684v-1.093l0.947,0.546c0.322,0.188,0.742,0.077,0.934-0.25
			C31.936,33.368,31.825,32.95,31.499,32.76z"/>
		<path style="fill:#83A5B3;" d="M16.652,32.76l-0.947-0.547l0.947-0.547c0.326-0.188,0.438-0.606,0.25-0.934
			c-0.189-0.328-0.607-0.438-0.935-0.25l-0.948,0.547v-1.094c0-0.377-0.304-0.684-0.683-0.684s-0.684,0.307-0.684,0.684v1.094
			l-0.947-0.547c-0.326-0.189-0.742-0.076-0.932,0.25s-0.076,0.744,0.25,0.934l0.946,0.547l-0.946,0.547
			c-0.326,0.189-0.439,0.607-0.25,0.934c0.188,0.327,0.604,0.438,0.932,0.25l0.947-0.546v1.093c0,0.379,0.305,0.684,0.684,0.684
			s0.683-0.305,0.683-0.684v-1.093l0.948,0.546c0.326,0.188,0.744,0.077,0.935-0.25C17.09,33.368,16.978,32.95,16.652,32.76z"/>
		<path style="fill:#83A5B3;" d="M20.225,39.432l-0.948-0.549l0.948-0.547c0.326-0.188,0.439-0.604,0.25-0.934
			c-0.188-0.326-0.606-0.438-0.934-0.25L18.594,37.7v-1.094c0-0.377-0.307-0.684-0.684-0.684s-0.682,0.307-0.682,0.684V37.7
			l-0.947-0.547c-0.328-0.188-0.746-0.076-0.937,0.25c-0.188,0.328-0.073,0.744,0.25,0.934l0.947,0.547l-0.947,0.548
			c-0.323,0.188-0.438,0.604-0.25,0.933c0.189,0.328,0.607,0.44,0.937,0.25l0.947-0.547v1.096c0,0.377,0.305,0.684,0.682,0.684
			s0.684-0.307,0.684-0.684v-1.096l0.947,0.547c0.326,0.19,0.744,0.077,0.934-0.25C20.665,40.038,20.551,39.62,20.225,39.432z"/>
		<path style="fill:#83A5B3;" d="M27.329,39.432l-0.949-0.549l0.949-0.547c0.326-0.188,0.439-0.604,0.248-0.934
			c-0.188-0.326-0.605-0.438-0.932-0.25L25.698,37.7v-1.094c0-0.377-0.305-0.684-0.686-0.684c-0.377,0-0.684,0.307-0.684,0.684V37.7
			l-0.945-0.547c-0.328-0.188-0.746-0.076-0.936,0.25c-0.189,0.328-0.076,0.744,0.25,0.934l0.947,0.547l-0.947,0.548
			c-0.326,0.188-0.439,0.604-0.25,0.933c0.188,0.328,0.606,0.44,0.934,0.25l0.947-0.547v1.096c0,0.377,0.307,0.684,0.684,0.684
			c0.381,0,0.686-0.307,0.686-0.684v-1.096l0.947,0.547c0.324,0.19,0.744,0.077,0.932-0.25
			C27.768,40.036,27.655,39.62,27.329,39.432z"/>
	</g>
	<path style="fill:#83A5B3;" d="M28.487,11.638c-1.414-0.294-2.658-0.225-3.312-0.049c-2.016-2.004-5.368-3.477-8.756-3.477
		c-6.723,0-12.229,5.197-12.727,11.793C1.487,21.176,0,23.553,0,26.282c0,4.062,3.293,7.354,7.354,7.354h1.028
		c0.693,0,1.234-0.688,1.234-1.407c0-0.778-0.629-1.407-1.406-1.407H7.992c-2.748,0-4.775-1.988-4.775-4.561
		c0-2.102,1.336-3.945,3.42-4.572c0.248-9.93,8.972-10.438,9.941-10.438c2.881,0,5.738,1.414,7.579,3.506
		c3.719-1.222,8.816,1.646,8.248,7.191c1.451-0.589,2.902-0.543,3.318-0.543c2.082,0,4.602,1.822,4.602,4.813
		c0,2.541-2.062,4.603-4.602,4.603h-0.215c-0.775,0-1.406,0.632-1.406,1.408s0.631,1.405,1.406,1.405h0.207
		c4.178,0,7.562-3.383,7.562-7.561c0,0,0.006-0.973-0.355-2.219c2.779-0.525,5.258-2.008,7.07-4.1
		c2.352-2.701-0.332-2.645-1.244-2.787c-5.391-0.664-12.676-6.281-9.998-15.172c0.582-1.908-0.521-1.929-1.33-1.697
		C37.423,0.101,29.012,1.966,28.487,11.638z M35.571,3.94c-1.234,6.408,3.898,14.338,11.08,15.093
		c-1.379,1.052-3.209,1.885-5.084,2.122c-1.143-1.438-3.039-2.631-6.197-2.631c-0.717-2.955-2.289-4.738-4.012-5.777
		C30.925,7.761,34.03,4.886,35.571,3.94z"/>
</g>
</svg>
