<?xml version="1.0" encoding="iso-8859-1"?>
<!-- Generator: Adobe Illustrator 15.0.0, SVG Export Plug-In . SVG Version: 6.00 Build 0)  -->
<!DOCTYPE svg PUBLIC "-//W3C//DTD SVG 1.1//EN" "http://www.w3.org/Graphics/SVG/1.1/DTD/svg11.dtd">
<svg version="1.1" id="Layer_1" xmlns="http://www.w3.org/2000/svg" xmlns:xlink="http://www.w3.org/1999/xlink" x="0px" y="0px"
	 width="43.17px" height="36.589px" viewBox="0 0 43.17 36.589" style="enable-background:new 0 0 43.17 36.589;"
	 xml:space="preserve">
<g id="_x30_8">
	<path style="fill:#83A5B3;" d="M10.627,31.394c0.822,0,1.492-0.668,1.492-1.493s-0.67-1.493-1.492-1.493H5.102
		c-0.824,0-1.494,0.668-1.494,1.493s0.67,1.493,1.494,1.493H10.627z"/>
	<path style="fill:#83A5B3;" d="M21.717,31.394c0.824,0,1.492-0.668,1.492-1.493s-0.668-1.493-1.492-1.493h-5.525
		c-0.824,0-1.494,0.668-1.494,1.493s0.67,1.493,1.494,1.493H21.717z"/>
	<path style="fill:#83A5B3;" d="M32.808,31.394c0.823,0,1.491-0.668,1.491-1.493s-0.668-1.493-1.491-1.493h-5.525
		c-0.824,0-1.492,0.668-1.492,1.493s0.668,1.493,1.492,1.493H32.808z"/>
	<path style="fill:#83A5B3;" d="M16.152,36.589c0.824,0,1.492-0.668,1.492-1.492s-0.668-1.492-1.492-1.492h-5.525
		c-0.826,0-1.494,0.668-1.494,1.492s0.668,1.492,1.494,1.492H16.152z"/>
	<path style="fill:#83A5B3;" d="M27.244,36.589c0.821,0,1.491-0.668,1.491-1.492c-0.002-0.824-0.67-1.492-1.491-1.492h-5.527
		c-0.826,0-1.492,0.668-1.492,1.492s0.666,1.492,1.492,1.492H27.244z"/>
	<path style="fill:#83A5B3;" d="M38.332,36.589c0.824,0,1.494-0.668,1.494-1.492s-0.67-1.492-1.494-1.492h-5.524
		c-0.824,0-1.492,0.668-1.492,1.492s0.668,1.492,1.492,1.492H38.332z"/>
	<path style="fill:#83A5B3;" d="M35.629,25.46c4.164,0,7.541-3.375,7.541-7.542c0,0,0.037-7.533-7.892-7.533
		c-1.715-7.059-8.315-7.417-10.168-6.918C23.103,1.468,19.758,0,16.375,0C9.672,0,4.178,5.185,3.684,11.764
		C1.482,13.03,0,15.403,0,18.123c0,4.054,3.285,7.337,7.338,7.337H35.629z M7.971,22.651c-2.74,0-4.762-1.983-4.762-4.549
		c0-2.096,1.332-3.934,3.412-4.561c0.246-9.904,8.947-10.41,9.914-10.41c2.873,0,5.725,1.41,7.562,3.497
		c3.709-1.219,8.795,1.641,8.227,7.172c1.447-0.587,2.896-0.542,3.312-0.542c2.076,0,4.589,1.82,4.589,4.802
		c0,2.535-2.058,4.59-4.589,4.59L7.971,22.651L7.971,22.651z"/>
</g>
</svg>
