<?xml version="1.0" encoding="iso-8859-1"?>
<!-- Generator: Adobe Illustrator 15.0.0, SVG Export Plug-In . SVG Version: 6.00 Build 0)  -->
<!DOCTYPE svg PUBLIC "-//W3C//DTD SVG 1.1//EN" "http://www.w3.org/Graphics/SVG/1.1/DTD/svg11.dtd">
<svg version="1.1" id="Layer_1" xmlns="http://www.w3.org/2000/svg" xmlns:xlink="http://www.w3.org/1999/xlink" x="0px" y="0px"
	 width="51.256px" height="33.85px" viewBox="0 0 51.256 33.85" style="enable-background:new 0 0 51.256 33.85;"
	 xml:space="preserve">
<path id="_x30_7" style="fill:#83A5B3;" d="M35.942,33.849c4.201,0,7.607-3.406,7.607-7.607c0,0,0.004-0.979-0.357-2.234
	c2.798-0.528,5.291-2.021,7.113-4.125c2.369-2.72-0.332-2.661-1.25-2.806C43.63,16.41,36.3,10.757,38.995,1.811
	c0.584-1.921-0.529-1.941-1.34-1.708c0,0-8.463,1.877-8.992,11.607c-1.422-0.294-2.676-0.225-3.332-0.048
	c-2.027-2.017-5.4-3.498-8.811-3.498c-6.766,0-12.309,5.23-12.807,11.867C1.494,21.308,0,23.703,0,26.447
	c0,4.09,3.312,7.402,7.4,7.402H35.942z M8.041,31.015c-2.766,0-4.805-2-4.805-4.589c0-2.114,1.344-3.969,3.441-4.602
	c0.25-9.993,9.027-10.503,10.002-10.503c2.9,0,5.777,1.422,7.629,3.527c3.742-1.229,8.871,1.656,8.298,7.235
	c1.461-0.592,2.922-0.545,3.34-0.545c2.099,0,4.63,1.834,4.63,4.846c0,2.558-2.072,4.63-4.63,4.63H8.041z M41.828,21.289
	c-1.146-1.447-3.06-2.647-6.236-2.647c-0.723-2.975-2.305-4.769-4.038-5.813c-0.437-5.017,2.688-7.91,4.241-8.861
	c-1.244,6.447,3.924,14.429,11.147,15.188C45.556,20.211,43.713,21.05,41.828,21.289z"/>
</svg>
