<?xml version="1.0" encoding="iso-8859-1"?>
<!-- Generator: Adobe Illustrator 15.0.0, SVG Export Plug-In . SVG Version: 6.00 Build 0)  -->
<!DOCTYPE svg PUBLIC "-//W3C//DTD SVG 1.1//EN" "http://www.w3.org/Graphics/SVG/1.1/DTD/svg11.dtd">
<svg version="1.1" id="Layer_1" xmlns="http://www.w3.org/2000/svg" xmlns:xlink="http://www.w3.org/1999/xlink" x="0px" y="0px"
	 width="54.432px" height="50.445px" viewBox="0 0 54.432 50.445" style="enable-background:new 0 0 54.432 50.445;"
	 xml:space="preserve">
<g id="_x31_2">
	<g>
		<path style="fill:#83A5B3;" d="M47.24,29.568c0.582,0.584,1.525,0.584,2.107,0c0.582-0.582,0.582-1.525,0-2.107l-2.343-2.342
			c-0.582-0.582-1.524-0.582-2.108,0c-0.58,0.582-0.58,1.525,0,2.107L47.24,29.568z"/>
		<g>
			<path style="fill:#83A5B3;" d="M38.617,1.49c0-0.824-0.666-1.49-1.49-1.49c-0.823,0-1.489,0.666-1.489,1.49v3.312
				c0,0.822,0.666,1.49,1.489,1.49c0.824,0,1.49-0.668,1.49-1.49V1.49z"/>
			<path style="fill:#83A5B3;" d="M26.988,5.062C26.406,4.48,25.461,4.48,24.879,5.06c-0.58,0.584-0.58,1.526,0,2.108l2.34,2.342
				c0.585,0.582,1.529,0.582,2.111,0c0.582-0.584,0.582-1.524-0.002-2.108L26.988,5.062z"/>
			<path style="fill:#83A5B3;" d="M52.938,18.82c0.826,0,1.492-0.668,1.492-1.492c0-0.822-0.666-1.49-1.492-1.49h-3.312
				c-0.821,0-1.489,0.668-1.489,1.49c0,0.824,0.668,1.492,1.489,1.49L52.938,18.82z"/>
			<path style="fill:#83A5B3;" d="M49.365,7.189c0.586-0.582,0.586-1.525,0-2.109c-0.58-0.582-1.525-0.582-2.107,0l-2.34,2.342
				c-0.584,0.582-0.584,1.527,0,2.109c0.582,0.582,1.527,0.582,2.107,0L49.365,7.189z"/>
			<path style="fill:#83A5B3;" d="M46.395,17.348c0-5.119-4.148-9.269-9.269-9.269c-3.024,0-5.711,1.449-7.401,3.691
				c-1.902-0.676-3.728-0.627-4.57-0.4c-2.014-2.002-5.361-3.473-8.748-3.473c-6.715,0-12.221,5.19-12.717,11.783
				C1.488,20.951,0,23.326,0,26.051c0,4.062,3.291,7.353,7.351,7.353h0.991c0.687,0,1.234-0.689,1.234-1.408
				c0-0.777-0.629-1.406-1.406-1.406H7.986c-2.744,0-4.771-1.985-4.771-4.557c0-2.1,1.334-3.939,3.416-4.568
				c0.248-9.922,8.966-10.428,9.933-10.428c2.879,0,5.735,1.412,7.574,3.502c3.715-1.221,8.811,1.646,8.237,7.185
				c1.451-0.587,2.904-0.541,3.318-0.541c2.084,0,4.598,1.821,4.598,4.811c0,2.539-2.061,4.598-4.598,4.598h-0.201
				c-0.777,0-1.408,0.632-1.408,1.408c0,0.775,0.631,1.406,1.408,1.406h0.195c4.174,0,7.555-3.383,7.555-7.555
				c0,0,0.002-0.572-0.158-1.402C45.109,22.746,46.395,20.197,46.395,17.348z M41.914,21.459c-1.08-1.66-3.035-3.158-6.572-3.158
				c-0.573-2.362-1.696-3.979-3.006-5.061c1.158-1.35,2.875-2.203,4.791-2.203c3.484,0,6.312,2.826,6.312,6.312
				C43.438,18.918,42.863,20.354,41.914,21.459z"/>
			<path style="fill:#83A5B3;" d="M46.994,25.154c-0.582-0.582-1.527-0.582-2.111,0c-0.582,0.584-0.582,1.529,0.002,2.111
				l2.345,2.346c0.584,0.582,1.526,0.582,2.112,0c0.582-0.584,0.582-1.529,0-2.111L46.994,25.154z"/>
			<path style="fill:#83A5B3;" d="M52.936,15.859H49.62c-0.824,0-1.492,0.67-1.492,1.494c0,0.823,0.668,1.492,1.492,1.492h3.316
				c0.826,0,1.494-0.669,1.494-1.492C54.43,16.529,53.762,15.859,52.936,15.859z"/>
		</g>
	</g>
	<g>
		<path style="fill:#83A5B3;" d="M16.789,31.271c0.414-0.713,0.17-1.625-0.545-2.039c-0.715-0.412-1.627-0.168-2.041,0.547
			l-1.656,2.871c-0.414,0.715-0.17,1.627,0.545,2.041c0.718,0.412,1.63,0.166,2.039-0.547L16.789,31.271z"/>
		<path style="fill:#83A5B3;" d="M12.262,38.689c0.411-0.715,0.168-1.627-0.548-2.039c-0.713-0.414-1.629-0.17-2.039,0.547
			l-1.659,2.871c-0.412,0.715-0.166,1.627,0.549,2.039c0.713,0.412,1.625,0.168,2.039-0.547L12.262,38.689z"/>
		<path style="fill:#83A5B3;" d="M23.824,31.271c0.41-0.713,0.166-1.625-0.547-2.039c-0.715-0.412-1.627-0.168-2.041,0.547
			L19.58,32.65c-0.414,0.715-0.168,1.627,0.545,2.041c0.715,0.412,1.629,0.166,2.041-0.547L23.824,31.271z"/>
		<path style="fill:#83A5B3;" d="M19.295,39.049c0.412-0.715,0.168-1.627-0.547-2.039c-0.715-0.413-1.629-0.168-2.039,0.548
			l-1.66,2.871c-0.409,0.715-0.166,1.627,0.552,2.038c0.711,0.414,1.625,0.168,2.034-0.547L19.295,39.049z"/>
		<path style="fill:#83A5B3;" d="M14.801,46.826c0.412-0.715,0.171-1.629-0.547-2.041c-0.713-0.412-1.625-0.166-2.039,0.547
			l-1.655,2.873c-0.414,0.713-0.17,1.627,0.545,2.039s1.627,0.168,2.039-0.547L14.801,46.826z"/>
		<path style="fill:#83A5B3;" d="M30.857,31.271c0.412-0.713,0.168-1.625-0.547-2.039c-0.715-0.412-1.629-0.168-2.039,0.547
			l-1.658,2.871c-0.414,0.715-0.168,1.627,0.547,2.041c0.713,0.412,1.627,0.166,2.039-0.547L30.857,31.271z"/>
		<path style="fill:#83A5B3;" d="M26.328,39.049c0.412-0.715,0.168-1.627-0.547-2.039c-0.713-0.413-1.627-0.168-2.039,0.548
			l-1.66,2.871c-0.412,0.715-0.168,1.627,0.547,2.038c0.713,0.414,1.629,0.168,2.039-0.547L26.328,39.049z"/>
	</g>
</g>
</svg>
