<?xml version="1.0" encoding="iso-8859-1"?>
<!-- Generator: Adobe Illustrator 15.0.0, SVG Export Plug-In . SVG Version: 6.00 Build 0)  -->
<!DOCTYPE svg PUBLIC "-//W3C//DTD SVG 1.1//EN" "http://www.w3.org/Graphics/SVG/1.1/DTD/svg11.dtd">
<svg version="1.1" id="Layer_1" xmlns="http://www.w3.org/2000/svg" xmlns:xlink="http://www.w3.org/1999/xlink" x="0px" y="0px"
	 width="43.242px" height="39.225px" viewBox="0 0 43.242 39.225" style="enable-background:new 0 0 43.242 39.225;"
	 xml:space="preserve">
<g id="_x32_7">
	<path style="fill:#83A5B3;" d="M19.432,31.597c-0.281,0.44-5.02,7.627-5.02,7.627s8.607-7.479,8.922-7.753
		c0.535-0.469,0.496-0.596,0.121-1.286c-0.264-0.495-1.16-2.162-1.383-2.562c-0.258-0.458-0.295-0.447-0.031-0.873
		c0.26-0.427,5.492-9.202,5.492-9.202s-8.41,7.223-9.102,7.82c-0.988,0.854-0.973,1.016-0.461,2.131
		c0.262,0.568,1.316,2.833,1.516,3.211C19.699,31.111,19.756,31.093,19.432,31.597z"/>
	<path style="fill:#83A5B3;" d="M32.375,13.823c1.451-0.588,2.902-0.541,3.318-0.541c2.082,0,4.596,1.82,4.596,4.81
		c0,2.54-2.059,4.599-4.596,4.599h-7.234c-0.777,0-1.406,0.631-1.406,1.409c0,0.774,0.629,1.403,1.406,1.403h7.229
		c4.172,0,7.556-3.381,7.556-7.555c0,0,0.036-7.546-7.902-7.546c-1.717-7.069-8.334-7.428-10.188-6.929
		C23.139,1.47,19.789,0,16.404,0C9.686,0,4.184,5.192,3.688,11.783C1.484,13.052,0,15.429,0,18.153c0,4.06,3.289,7.35,7.348,7.35
		h6.99c0.639,0,1.236-0.688,1.236-1.406c0-0.777-0.631-1.406-1.406-1.406H7.982c-2.742,0-4.768-1.987-4.768-4.558
		c0-2.099,1.332-3.939,3.416-4.567c0.248-9.922,8.963-10.43,9.932-10.43c2.879,0,5.734,1.413,7.572,3.504
		C27.85,5.418,32.945,8.283,32.375,13.823z"/>
</g>
</svg>
