<?xml version="1.0" encoding="iso-8859-1"?>
<!-- Generator: Adobe Illustrator 15.0.0, SVG Export Plug-In . SVG Version: 6.00 Build 0)  -->
<!DOCTYPE svg PUBLIC "-//W3C//DTD SVG 1.1//EN" "http://www.w3.org/Graphics/SVG/1.1/DTD/svg11.dtd">
<svg version="1.1" id="Layer_1" xmlns="http://www.w3.org/2000/svg" xmlns:xlink="http://www.w3.org/1999/xlink" x="0px" y="0px"
	 width="50.936px" height="42.547px" viewBox="0 0 50.936 42.547" style="enable-background:new 0 0 50.936 42.547;"
	 xml:space="preserve">
<g id="_x33_4">
	<path style="fill:#83A5B3;" d="M19.543,32.76l-0.946-0.547l0.946-0.547c0.326-0.188,0.439-0.606,0.25-0.935
		c-0.188-0.327-0.606-0.438-0.934-0.249l-0.947,0.546v-1.093c0-0.378-0.305-0.684-0.684-0.684c-0.377,0-0.683,0.306-0.683,0.684
		v1.093l-0.948-0.546c-0.324-0.189-0.744-0.078-0.933,0.249s-0.076,0.745,0.25,0.935l0.947,0.547l-0.947,0.547
		c-0.326,0.188-0.438,0.605-0.25,0.934c0.188,0.327,0.607,0.438,0.933,0.25l0.948-0.548v1.095c0,0.379,0.306,0.684,0.683,0.684
		c0.379,0,0.684-0.305,0.684-0.684v-1.093l0.947,0.546c0.326,0.188,0.746,0.077,0.934-0.25
		C19.982,33.368,19.869,32.948,19.543,32.76z"/>
	<path style="fill:#83A5B3;" d="M28.023,32.76l-0.945-0.547l0.945-0.547c0.328-0.188,0.44-0.606,0.252-0.935
		c-0.189-0.328-0.607-0.438-0.935-0.249l-0.946,0.546v-1.093c0-0.378-0.308-0.684-0.685-0.684s-0.682,0.306-0.682,0.684v1.093
		l-0.949-0.546c-0.326-0.189-0.744-0.078-0.932,0.249c-0.189,0.327-0.078,0.745,0.25,0.935l0.946,0.547l-0.946,0.547
		c-0.328,0.188-0.439,0.605-0.25,0.934c0.188,0.327,0.604,0.438,0.932,0.25l0.949-0.548v1.095c0,0.379,0.305,0.684,0.682,0.684
		s0.685-0.305,0.685-0.684v-1.093l0.946,0.546c0.326,0.188,0.744,0.077,0.935-0.25C28.465,33.368,28.352,32.948,28.023,32.76z"/>
	<path style="fill:#83A5B3;" d="M23.969,40.135l-0.948-0.547l0.948-0.547c0.326-0.188,0.438-0.606,0.25-0.934
		c-0.188-0.328-0.604-0.439-0.934-0.25l-0.947,0.547V37.31c0-0.377-0.305-0.683-0.684-0.683c-0.377,0-0.682,0.306-0.682,0.683v1.095
		l-0.949-0.547c-0.324-0.189-0.744-0.076-0.933,0.25c-0.188,0.326-0.077,0.744,0.25,0.934l0.945,0.547l-0.945,0.545
		c-0.327,0.189-0.438,0.607-0.25,0.935c0.188,0.327,0.607,0.438,0.933,0.25l0.949-0.547v1.095c0,0.379,0.305,0.684,0.682,0.684
		c0.379,0,0.684-0.305,0.684-0.684v-1.093l0.947,0.545c0.328,0.188,0.746,0.077,0.934-0.25
		C24.406,40.743,24.295,40.323,23.969,40.135z"/>
	<path style="fill:#83A5B3;" d="M28.486,11.637c-1.414-0.294-2.66-0.224-3.312-0.049c-2.016-2.003-5.366-3.476-8.756-3.476
		c-6.723,0-12.229,5.197-12.727,11.793C1.484,21.176,0,23.554,0,26.282c0,4.062,3.293,7.354,7.355,7.354h2.75
		c0.694,0,1.237-0.689,1.237-1.407c0-0.778-0.633-1.407-1.407-1.407H7.99c-2.746,0-4.771-1.988-4.771-4.561
		c0-2.102,1.332-3.945,3.419-4.572c0.247-9.93,8.971-10.438,9.938-10.438c2.883,0,5.742,1.414,7.582,3.506
		c3.719-1.222,8.816,1.646,8.248,7.19c1.451-0.589,2.904-0.542,3.32-0.542c2.082,0,4.598,1.822,4.598,4.813
		c0,2.541-2.059,4.603-4.598,4.603h-2.779c-0.777,0-1.406,0.632-1.406,1.408s0.629,1.405,1.406,1.405h2.772
		c4.175,0,7.562-3.383,7.562-7.561c0,0,0.006-0.973-0.357-2.219c2.779-0.525,5.261-2.008,7.07-4.1
		c2.354-2.702-0.332-2.645-1.242-2.788c-5.391-0.663-12.676-6.28-9.998-15.171c0.58-1.908-0.522-1.929-1.332-1.697
		C37.42,0.101,29.01,1.966,28.486,11.637z M35.57,3.94c-1.238,6.408,3.9,14.338,11.078,15.093c-1.379,1.052-3.209,1.884-5.082,2.122
		c-1.142-1.438-3.037-2.632-6.197-2.632c-0.719-2.954-2.289-4.738-4.014-5.776C30.924,7.761,34.027,4.886,35.57,3.94z"/>
</g>
</svg>
