<svg xmlns="http://www.w3.org/2000/svg" width="1920" height="1080"><path d="M-236,-189L86,-176L244,-187Z" fill="#fff1ac" stroke="#fff1ac" stroke-width="1.51"/><path d="M243,1252L75,1257L408,1254Z" fill="#d07e50" stroke="#d07e50" stroke-width="1.51"/><path d="M400,-178L567,-173L712,-175Z" fill="#ffd988" stroke="#ffd988" stroke-width="1.51"/><path d="M244,-187L400,-178L712,-175Z" fill="#ffe090" stroke="#ffe090" stroke-width="1.51"/><path d="M559,1258L408,1254L727,1268Z" fill="#cc6b3d" stroke="#cc6b3d" stroke-width="1.51"/><path d="M408,1254L75,1257L727,1268Z" fill="#ce7647" stroke="#ce7647" stroke-width="1.51"/><path d="M75,1257L-235,1265L727,1268Z" fill="#cf7e54" stroke="#cf7e54" stroke-width="1.51"/><path d="M-236,-189L244,-187L1044,-188Z" fill="#ffe697" stroke="#ffe697" stroke-width="1.51"/><path d="M712,-175L886,-177L1044,-188Z" fill="#ffc77d" stroke="#ffc77d" stroke-width="1.51"/><path d="M244,-187L712,-175L1044,-188Z" fill="#ffd383" stroke="#ffd383" stroke-width="1.51"/><path d="M885,1266L727,1268L1351,1267Z" fill="#c94f31" stroke="#c94f31" stroke-width="1.51"/><path d="M1192,1262L885,1266L1351,1267Z" fill="#c93f2d" stroke="#c93f2d" stroke-width="1.51"/><path d="M1044,-188L1199,-174L1359,-177Z" fill="#ffb072" stroke="#ffb072" stroke-width="1.51"/><path d="M1359,-177L1525,-177L1676,-182Z" fill="#fe9e69" stroke="#fe9e69" stroke-width="1.51"/><path d="M1044,-188L1359,-177L1676,-182Z" fill="#ffa66e" stroke="#ffa66e" stroke-width="1.51"/><path d="M1680,1264L1515,1264L1845,1268Z" fill="#b70923" stroke="#b70923" stroke-width="1.51"/><path d="M1515,1264L1351,1267L1845,1268Z" fill="#bd1123" stroke="#bd1123" stroke-width="1.51"/><path d="M1044,-188L1676,-182L1999,-187Z" fill="#fd9b69" stroke="#fd9b69" stroke-width="1.51"/><path d="M1676,-182L1832,-173L1999,-187Z" fill="#ec936b" stroke="#ec936b" stroke-width="1.51"/><path d="M2008,1105L1999,1263L2152,1254Z" fill="#a50026" stroke="#a50026" stroke-width="1.51"/><path d="M2005,-28L2000,134L2154,-23Z" fill="#d68257" stroke="#d68257" stroke-width="1.51"/><path d="M2000,455L1993,615L2155,463Z" fill="#d15732" stroke="#d15732" stroke-width="1.51"/><path d="M1998,940L2008,1105L2157,934Z" fill="#be0923" stroke="#be0923" stroke-width="1.51"/><path d="M1044,-188L1999,-187L2158,-189Z" fill="#f3966a" stroke="#f3966a" stroke-width="1.51"/><path d="M2005,-28L2154,-23L2158,-189Z" fill="#d18661" stroke="#d18661" stroke-width="1.51"/><path d="M1999,-187L2005,-28L2158,-189Z" fill="#d88a66" stroke="#d88a66" stroke-width="1.51"/><path d="M1993,615L1991,774L2158,776Z" fill="#cf322a" stroke="#cf322a" stroke-width="1.51"/><path d="M1998,940L2157,934L2158,776Z" fill="#c11924" stroke="#c11924" stroke-width="1.51"/><path d="M1991,774L1998,940L2158,776Z" fill="#ca2226" stroke="#ca2226" stroke-width="1.51"/><path d="M2000,455L2155,463L2160,307Z" fill="#cc6036" stroke="#cc6036" stroke-width="1.51"/><path d="M2005,302L2000,455L2160,307Z" fill="#d26638" stroke="#d26638" stroke-width="1.51"/><path d="M1993,615L2158,776L2164,616Z" fill="#ca3c2c" stroke="#ca3c2c" stroke-width="1.51"/><path d="M2155,463L1993,615L2164,616Z" fill="#cb4e31" stroke="#cb4e31" stroke-width="1.51"/><path d="M2160,307L2155,463L2164,616Z" fill="#c65935" stroke="#c65935" stroke-width="1.51"/><path d="M2154,-23L2000,134L2166,147Z" fill="#d07d51" stroke="#d07d51" stroke-width="1.51"/><path d="M2005,302L2160,307L2166,147Z" fill="#cd6f41" stroke="#cd6f41" stroke-width="1.51"/><path d="M2000,134L2005,302L2166,147Z" fill="#d37747" stroke="#d37747" stroke-width="1.51"/><path d="M2158,-189L2154,-23L2166,147Z" fill="#cb815b" stroke="#cb815b" stroke-width="1.51"/><path d="M2160,307L2164,616L2166,147Z" fill="#c66339" stroke="#c66339" stroke-width="1.51"/><path d="M2157,934L2008,1105L2168,1096Z" fill="#b30624" stroke="#b30624" stroke-width="1.51"/><path d="M2008,1105L2152,1254L2168,1096Z" fill="#a80026" stroke="#a80026" stroke-width="1.51"/><path d="M2164,616L2158,776L2168,1096Z" fill="#be2127" stroke="#be2127" stroke-width="1.51"/><path d="M2158,776L2157,934L2168,1096Z" fill="#b90d23" stroke="#b90d23" stroke-width="1.51"/><path d="M-236,-189L-89,-177L86,-176Z" fill="#fff4b3" stroke="#fff4b3" stroke-width="1.51"/><path d="M1031,1252L885,1266L1192,1262Z" fill="#ca4b30" stroke="#ca4b30" stroke-width="1.51"/><path d="M1833,620L1840,775L1991,774Z" fill="#de3628" stroke="#de3628" stroke-width="1.51"/><path d="M1840,775L1844,945L1991,774Z" fill="#d82425" stroke="#d82425" stroke-width="1.51"/><path d="M1833,620L1991,774L1993,615Z" fill="#db402b" stroke="#db402b" stroke-width="1.51"/><path d="M1833,456L1833,620L1993,615Z" fill="#e0542f" stroke="#e0542f" stroke-width="1.51"/><path d="M1991,774L1844,945L1998,940Z" fill="#d11a24" stroke="#d11a24" stroke-width="1.51"/><path d="M1844,945L1847,1104L1998,940Z" fill="#cc0c22" stroke="#cc0c22" stroke-width="1.51"/><path d="M1832,-173L1846,-21L1999,-187Z" fill="#e88f65" stroke="#e88f65" stroke-width="1.51"/><path d="M1847,1104L1845,1268L1999,1263Z" fill="#b30126" stroke="#b30126" stroke-width="1.51"/><path d="M1833,456L1993,615L2000,455Z" fill="#dc5a32" stroke="#dc5a32" stroke-width="1.51"/><path d="M1842,303L1833,456L2000,455Z" fill="#e16635" stroke="#e16635" stroke-width="1.51"/><path d="M1846,-21L1847,146L2000,134Z" fill="#e58450" stroke="#e58450" stroke-width="1.51"/><path d="M1846,-21L2000,134L2005,-28Z" fill="#e18657" stroke="#e18657" stroke-width="1.51"/><path d="M1999,-187L1846,-21L2005,-28Z" fill="#e28b61" stroke="#e28b61" stroke-width="1.51"/><path d="M1842,303L2000,455L2005,302Z" fill="#dc6a38" stroke="#dc6a38" stroke-width="1.51"/><path d="M2000,134L1847,146L2005,302Z" fill="#df7b46" stroke="#df7b46" stroke-width="1.51"/><path d="M1847,146L1842,303L2005,302Z" fill="#e37740" stroke="#e37740" stroke-width="1.51"/><path d="M1847,1104L1999,1263L2008,1105Z" fill="#b70026" stroke="#b70026" stroke-width="1.51"/><path d="M1998,940L1847,1104L2008,1105Z" fill="#c20624" stroke="#c20624" stroke-width="1.51"/><path d="M1676,-182L1677,-29L1832,-173Z" fill="#f39464" stroke="#f39464" stroke-width="1.51"/><path d="M1679,296L1672,460L1833,456Z" fill="#eb6a33" stroke="#eb6a33" stroke-width="1.51"/><path d="M1833,456L1672,460L1833,620Z" fill="#e75e2f" stroke="#e75e2f" stroke-width="1.51"/><path d="M1672,460L1674,624L1833,620Z" fill="#e9572c" stroke="#e9572c" stroke-width="1.51"/><path d="M1833,620L1674,624L1840,775Z" fill="#e54329" stroke="#e54329" stroke-width="1.51"/><path d="M1674,624L1672,778L1840,775Z" fill="#e83926" stroke="#e83926" stroke-width="1.51"/><path d="M1679,296L1833,456L1842,303Z" fill="#e86f35" stroke="#e86f35" stroke-width="1.51"/><path d="M1686,144L1679,296L1842,303Z" fill="#ed7b3e" stroke="#ed7b3e" stroke-width="1.51"/><path d="M1840,775L1672,778L1844,945Z" fill="#de2723" stroke="#de2723" stroke-width="1.51"/><path d="M1672,778L1673,947L1844,945Z" fill="#de2020" stroke="#de2020" stroke-width="1.51"/><path d="M1673,947L1674,1100L1844,945Z" fill="#d51320" stroke="#d51320" stroke-width="1.51"/><path d="M1832,-173L1677,-29L1846,-21Z" fill="#ee905e" stroke="#ee905e" stroke-width="1.51"/><path d="M1677,-29L1686,144L1846,-21Z" fill="#f08c54" stroke="#f08c54" stroke-width="1.51"/><path d="M1846,-21L1686,144L1847,146Z" fill="#eb874f" stroke="#eb874f" stroke-width="1.51"/><path d="M1686,144L1842,303L1847,146Z" fill="#ea7f44" stroke="#ea7f44" stroke-width="1.51"/><path d="M1844,945L1674,1100L1847,1104Z" fill="#ce0d23" stroke="#ce0d23" stroke-width="1.51"/><path d="M1680,1264L1845,1268L1847,1104Z" fill="#b90525" stroke="#b90525" stroke-width="1.51"/><path d="M1674,1100L1680,1264L1847,1104Z" fill="#c50824" stroke="#c50824" stroke-width="1.51"/><path d="M1516,624L1528,788L1672,778Z" fill="#f13d24" stroke="#f13d24" stroke-width="1.51"/><path d="M1520,308L1519,456L1672,460Z" fill="#f46f30" stroke="#f46f30" stroke-width="1.51"/><path d="M1519,456L1516,624L1672,460Z" fill="#f2642d" stroke="#f2642d" stroke-width="1.51"/><path d="M1672,778L1528,788L1673,947Z" fill="#e82b20" stroke="#e82b20" stroke-width="1.51"/><path d="M1528,788L1525,939L1673,947Z" fill="#e7261e" stroke="#e7261e" stroke-width="1.51"/><path d="M1525,939L1525,1093L1673,947Z" fill="#df1a1e" stroke="#df1a1e" stroke-width="1.51"/><path d="M1672,460L1516,624L1674,624Z" fill="#f05a2a" stroke="#f05a2a" stroke-width="1.51"/><path d="M1516,624L1672,778L1674,624Z" fill="#ef4626" stroke="#ef4626" stroke-width="1.51"/><path d="M1673,947L1525,1093L1674,1100Z" fill="#d71320" stroke="#d71320" stroke-width="1.51"/><path d="M1525,1093L1515,1264L1674,1100Z" fill="#cf1322" stroke="#cf1322" stroke-width="1.51"/><path d="M1676,-182L1525,-177L1677,-29Z" fill="#f99662" stroke="#f99662" stroke-width="1.51"/><path d="M1525,-177L1525,-16L1677,-29Z" fill="#fb965d" stroke="#fb965d" stroke-width="1.51"/><path d="M1520,308L1672,460L1679,296Z" fill="#f17232" stroke="#f17232" stroke-width="1.51"/><path d="M1524,141L1520,308L1679,296Z" fill="#f6803c" stroke="#f6803c" stroke-width="1.51"/><path d="M1674,1100L1515,1264L1680,1264Z" fill="#c30c22" stroke="#c30c22" stroke-width="1.51"/><path d="M1677,-29L1525,-16L1686,144Z" fill="#f68f52" stroke="#f68f52" stroke-width="1.51"/><path d="M1525,-16L1524,141L1686,144Z" fill="#f88e4c" stroke="#f88e4c" stroke-width="1.51"/><path d="M1524,141L1679,296L1686,144Z" fill="#f48442" stroke="#f48442" stroke-width="1.51"/><path d="M1363,1100L1351,1267L1515,1264Z" fill="#cc2426" stroke="#cc2426" stroke-width="1.51"/><path d="M1362,613L1355,783L1516,624Z" fill="#f8532a" stroke="#f8532a" stroke-width="1.51"/><path d="M1362,613L1516,624L1519,456Z" fill="#f6622d" stroke="#f6622d" stroke-width="1.51"/><path d="M1358,453L1362,613L1519,456Z" fill="#f86d31" stroke="#f86d31" stroke-width="1.51"/><path d="M1361,140L1357,308L1520,308Z" fill="#fc8740" stroke="#fc8740" stroke-width="1.51"/><path d="M1358,453L1519,456L1520,308Z" fill="#f87533" stroke="#f87533" stroke-width="1.51"/><path d="M1357,308L1358,453L1520,308Z" fill="#fa7c36" stroke="#fa7c36" stroke-width="1.51"/><path d="M1361,140L1520,308L1524,141Z" fill="#fa8b44" stroke="#fa8b44" stroke-width="1.51"/><path d="M1361,140L1524,141L1525,-16Z" fill="#fc934f" stroke="#fc934f" stroke-width="1.51"/><path d="M1353,-26L1361,140L1525,-16Z" fill="#ff9956" stroke="#ff9956" stroke-width="1.51"/><path d="M1353,-26L1525,-16L1525,-177Z" fill="#fe9b60" stroke="#fe9b60" stroke-width="1.51"/><path d="M1359,-177L1353,-26L1525,-177Z" fill="#ffa067" stroke="#ffa067" stroke-width="1.51"/><path d="M1363,1100L1515,1264L1525,1093Z" fill="#d31f25" stroke="#d31f25" stroke-width="1.51"/><path d="M1364,946L1363,1100L1525,1093Z" fill="#e02823" stroke="#e02823" stroke-width="1.51"/><path d="M1364,946L1525,1093L1525,939Z" fill="#e32620" stroke="#e32620" stroke-width="1.51"/><path d="M1516,624L1355,783L1528,788Z" fill="#f54326" stroke="#f54326" stroke-width="1.51"/><path d="M1364,946L1525,939L1528,788Z" fill="#eb2f20" stroke="#eb2f20" stroke-width="1.51"/><path d="M1355,783L1364,946L1528,788Z" fill="#f13a23" stroke="#f13a23" stroke-width="1.51"/><path d="M-85,1253L-235,1265L75,1257Z" fill="#d18764" stroke="#d18764" stroke-width="1.51"/><path d="M1203,1106L1192,1262L1351,1267Z" fill="#d1332a" stroke="#d1332a" stroke-width="1.51"/><path d="M1198,-20L1205,131L1353,-26Z" fill="#ffa25b" stroke="#ffa25b" stroke-width="1.51"/><path d="M1199,-174L1198,-20L1353,-26Z" fill="#ffa766" stroke="#ffa766" stroke-width="1.51"/><path d="M1192,614L1200,787L1355,783Z" fill="#fc542b" stroke="#fc542b" stroke-width="1.51"/><path d="M1200,787L1200,933L1355,783Z" fill="#f64827" stroke="#f64827" stroke-width="1.51"/><path d="M1195,306L1206,456L1357,308Z" fill="#ff863a" stroke="#ff863a" stroke-width="1.51"/><path d="M1205,131L1195,306L1357,308Z" fill="#ff9144" stroke="#ff9144" stroke-width="1.51"/><path d="M1357,308L1206,456L1358,453Z" fill="#fd7d37" stroke="#fd7d37" stroke-width="1.51"/><path d="M1199,-174L1353,-26L1359,-177Z" fill="#ffa669" stroke="#ffa669" stroke-width="1.51"/><path d="M1205,131L1357,308L1361,140Z" fill="#ff9349" stroke="#ff9349" stroke-width="1.51"/><path d="M1353,-26L1205,131L1361,140Z" fill="#ff9c54" stroke="#ff9c54" stroke-width="1.51"/><path d="M1192,614L1355,783L1362,613Z" fill="#fc5a2c" stroke="#fc5a2c" stroke-width="1.51"/><path d="M1358,453L1206,456L1362,613Z" fill="#fc7234" stroke="#fc7234" stroke-width="1.51"/><path d="M1206,456L1192,614L1362,613Z" fill="#fd6f32" stroke="#fd6f32" stroke-width="1.51"/><path d="M1203,1106L1351,1267L1363,1100Z" fill="#d82e28" stroke="#d82e28" stroke-width="1.51"/><path d="M1355,783L1200,933L1364,946Z" fill="#f23d24" stroke="#f23d24" stroke-width="1.51"/><path d="M1203,1106L1363,1100L1364,946Z" fill="#e43126" stroke="#e43126" stroke-width="1.51"/><path d="M1200,933L1203,1106L1364,946Z" fill="#ea3a25" stroke="#ea3a25" stroke-width="1.51"/><path d="M1037,1104L1031,1252L1192,1262Z" fill="#d2472e" stroke="#d2472e" stroke-width="1.51"/><path d="M1047,617L1043,781L1192,614Z" fill="#fd6e32" stroke="#fd6e32" stroke-width="1.51"/><path d="M1043,465L1047,617L1192,614Z" fill="#fd7e37" stroke="#fd7e37" stroke-width="1.51"/><path d="M1045,135L1048,300L1195,306Z" fill="#ff9e4a" stroke="#ff9e4a" stroke-width="1.51"/><path d="M1048,300L1043,465L1195,306Z" fill="#fe933f" stroke="#fe933f" stroke-width="1.51"/><path d="M1031,-13L1045,135L1198,-20Z" fill="#ffaf5f" stroke="#ffaf5f" stroke-width="1.51"/><path d="M1044,-188L1031,-13L1198,-20Z" fill="#ffb46b" stroke="#ffb46b" stroke-width="1.51"/><path d="M1044,-188L1198,-20L1199,-174Z" fill="#ffb26f" stroke="#ffb26f" stroke-width="1.51"/><path d="M1043,781L1045,947L1200,933Z" fill="#f4552a" stroke="#f4552a" stroke-width="1.51"/><path d="M1043,781L1200,933L1200,787Z" fill="#f7552a" stroke="#f7552a" stroke-width="1.51"/><path d="M1192,614L1043,781L1200,787Z" fill="#fd602e" stroke="#fd602e" stroke-width="1.51"/><path d="M1037,1104L1192,1262L1203,1106Z" fill="#da432c" stroke="#da432c" stroke-width="1.51"/><path d="M1200,933L1045,947L1203,1106Z" fill="#eb4828" stroke="#eb4828" stroke-width="1.51"/><path d="M1045,947L1037,1104L1203,1106Z" fill="#e64c2b" stroke="#e64c2b" stroke-width="1.51"/><path d="M1198,-20L1045,135L1205,131Z" fill="#ffa859" stroke="#ffa859" stroke-width="1.51"/><path d="M1045,135L1195,306L1205,131Z" fill="#ffa04d" stroke="#ffa04d" stroke-width="1.51"/><path d="M1195,306L1043,465L1206,456Z" fill="#fe8a3b" stroke="#fe8a3b" stroke-width="1.51"/><path d="M1043,465L1192,614L1206,456Z" fill="#fd7f37" stroke="#fd7f37" stroke-width="1.51"/><path d="M885,1101L885,1266L1031,1252Z" fill="#d35632" stroke="#d35632" stroke-width="1.51"/><path d="M888,-22L873,137L1031,-13Z" fill="#ffbb64" stroke="#ffbb64" stroke-width="1.51"/><path d="M886,-177L888,-22L1031,-13Z" fill="#ffc06f" stroke="#ffc06f" stroke-width="1.51"/><path d="M885,1101L1031,1252L1037,1104Z" fill="#db5431" stroke="#db5431" stroke-width="1.51"/><path d="M877,620L887,785L1043,781Z" fill="#fd7434" stroke="#fd7434" stroke-width="1.51"/><path d="M871,455L877,620L1043,465Z" fill="#fd923e" stroke="#fd923e" stroke-width="1.51"/><path d="M886,-177L1031,-13L1044,-188Z" fill="#ffbe74" stroke="#ffbe74" stroke-width="1.51"/><path d="M1031,-13L873,137L1045,135Z" fill="#ffb45e" stroke="#ffb45e" stroke-width="1.51"/><path d="M873,137L877,297L1045,135Z" fill="#ffb054" stroke="#ffb054" stroke-width="1.51"/><path d="M885,1101L1037,1104L1045,947Z" fill="#e6582d" stroke="#e6582d" stroke-width="1.51"/><path d="M882,945L885,1101L1045,947Z" fill="#ec5f2d" stroke="#ec5f2d" stroke-width="1.51"/><path d="M1043,781L887,785L1045,947Z" fill="#f7652e" stroke="#f7652e" stroke-width="1.51"/><path d="M887,785L882,945L1045,947Z" fill="#f4652d" stroke="#f4652d" stroke-width="1.51"/><path d="M1043,465L877,620L1047,617Z" fill="#fd8739" stroke="#fd8739" stroke-width="1.51"/><path d="M877,620L1043,781L1047,617Z" fill="#fd7835" stroke="#fd7835" stroke-width="1.51"/><path d="M871,455L1043,465L1048,300Z" fill="#fe9740" stroke="#fe9740" stroke-width="1.51"/><path d="M877,297L871,455L1048,300Z" fill="#fea044" stroke="#fea044" stroke-width="1.51"/><path d="M1045,135L877,297L1048,300Z" fill="#ffa74d" stroke="#ffa74d" stroke-width="1.51"/><path d="M716,452L714,627L871,455Z" fill="#fe9b42" stroke="#fe9b42" stroke-width="1.51"/><path d="M722,-21L728,133L873,137Z" fill="#ffc164" stroke="#ffc164" stroke-width="1.51"/><path d="M716,452L871,455L877,297Z" fill="#fea245" stroke="#fea245" stroke-width="1.51"/><path d="M711,295L716,452L877,297Z" fill="#feab48" stroke="#feab48" stroke-width="1.51"/><path d="M873,137L728,133L877,297Z" fill="#ffb757" stroke="#ffb757" stroke-width="1.51"/><path d="M728,133L711,295L877,297Z" fill="#ffb453" stroke="#ffb453" stroke-width="1.51"/><path d="M871,455L714,627L877,620Z" fill="#fe913e" stroke="#fe913e" stroke-width="1.51"/><path d="M714,627L717,774L877,620Z" fill="#fe863a" stroke="#fe863a" stroke-width="1.51"/><path d="M723,938L717,1098L882,945Z" fill="#ed6a31" stroke="#ed6a31" stroke-width="1.51"/><path d="M882,945L717,1098L885,1101Z" fill="#e76431" stroke="#e76431" stroke-width="1.51"/><path d="M717,1098L727,1268L885,1101Z" fill="#dc6335" stroke="#dc6335" stroke-width="1.51"/><path d="M885,1101L727,1268L885,1266Z" fill="#d35d34" stroke="#d35d34" stroke-width="1.51"/><path d="M712,-175L722,-21L886,-177Z" fill="#ffcb7a" stroke="#ffcb7a" stroke-width="1.51"/><path d="M877,620L717,774L887,785Z" fill="#fe7b37" stroke="#fe7b37" stroke-width="1.51"/><path d="M723,938L882,945L887,785Z" fill="#f56c30" stroke="#f56c30" stroke-width="1.51"/><path d="M717,774L723,938L887,785Z" fill="#f97533" stroke="#f97533" stroke-width="1.51"/><path d="M886,-177L722,-21L888,-22Z" fill="#ffc573" stroke="#ffc573" stroke-width="1.51"/><path d="M722,-21L873,137L888,-22Z" fill="#ffc168" stroke="#ffc168" stroke-width="1.51"/><path d="M564,146L561,295L711,295Z" fill="#ffbd58" stroke="#ffbd58" stroke-width="1.51"/><path d="M551,611L567,787L714,627Z" fill="#ff903f" stroke="#ff903f" stroke-width="1.51"/><path d="M711,295L561,295L716,452Z" fill="#feb04b" stroke="#feb04b" stroke-width="1.51"/><path d="M561,295L553,455L716,452Z" fill="#feaf4b" stroke="#feaf4b" stroke-width="1.51"/><path d="M551,611L714,627L716,452Z" fill="#fe9c42" stroke="#fe9c42" stroke-width="1.51"/><path d="M553,455L551,611L716,452Z" fill="#fea547" stroke="#fea547" stroke-width="1.51"/><path d="M714,627L567,787L717,774Z" fill="#ff853a" stroke="#ff853a" stroke-width="1.51"/><path d="M567,934L561,1108L717,1098Z" fill="#e97237" stroke="#e97237" stroke-width="1.51"/><path d="M561,1108L559,1258L717,1098Z" fill="#dd6d3a" stroke="#dd6d3a" stroke-width="1.51"/><path d="M712,-175L567,-173L722,-21Z" fill="#ffd17d" stroke="#ffd17d" stroke-width="1.51"/><path d="M567,-173L563,-16L722,-21Z" fill="#ffd179" stroke="#ffd179" stroke-width="1.51"/><path d="M717,774L567,787L723,938Z" fill="#f97c36" stroke="#f97c36" stroke-width="1.51"/><path d="M567,787L567,934L723,938Z" fill="#f77b36" stroke="#f77b36" stroke-width="1.51"/><path d="M567,934L717,1098L723,938Z" fill="#ee7133" stroke="#ee7133" stroke-width="1.51"/><path d="M717,1098L559,1258L727,1268Z" fill="#d46738" stroke="#d46738" stroke-width="1.51"/><path d="M564,146L711,295L728,133Z" fill="#febf5b" stroke="#febf5b" stroke-width="1.51"/><path d="M722,-21L563,-16L728,133Z" fill="#ffca6c" stroke="#ffca6c" stroke-width="1.51"/><path d="M563,-16L564,146L728,133Z" fill="#ffca68" stroke="#ffca68" stroke-width="1.51"/><path d="M393,454L397,621L551,611Z" fill="#ffa94f" stroke="#ffa94f" stroke-width="1.51"/><path d="M397,621L397,774L551,611Z" fill="#ff9b4a" stroke="#ff9b4a" stroke-width="1.51"/><path d="M393,454L551,611L553,455Z" fill="#ffab4f" stroke="#ffab4f" stroke-width="1.51"/><path d="M392,297L393,454L553,455Z" fill="#ffb957" stroke="#ffb957" stroke-width="1.51"/><path d="M392,297L553,455L561,295Z" fill="#ffba55" stroke="#ffba55" stroke-width="1.51"/><path d="M408,1254L559,1258L561,1108Z" fill="#d67140" stroke="#d67140" stroke-width="1.51"/><path d="M393,1102L408,1254L561,1108Z" fill="#df7844" stroke="#df7844" stroke-width="1.51"/><path d="M393,937L393,1102L561,1108Z" fill="#ea7d41" stroke="#ea7d41" stroke-width="1.51"/><path d="M400,-178L393,-13L563,-16Z" fill="#ffdb84" stroke="#ffdb84" stroke-width="1.51"/><path d="M393,-13L391,131L563,-16Z" fill="#ffd679" stroke="#ffd679" stroke-width="1.51"/><path d="M392,297L561,295L564,146Z" fill="#ffc35f" stroke="#ffc35f" stroke-width="1.51"/><path d="M391,131L392,297L564,146Z" fill="#ffcc68" stroke="#ffcc68" stroke-width="1.51"/><path d="M563,-16L391,131L564,146Z" fill="#ffd070" stroke="#ffd070" stroke-width="1.51"/><path d="M551,611L397,774L567,787Z" fill="#ff9044" stroke="#ff9044" stroke-width="1.51"/><path d="M397,774L393,937L567,787Z" fill="#fb8a42" stroke="#fb8a42" stroke-width="1.51"/><path d="M567,787L393,937L567,934Z" fill="#f8823d" stroke="#f8823d" stroke-width="1.51"/><path d="M393,937L561,1108L567,934Z" fill="#f07b3c" stroke="#f07b3c" stroke-width="1.51"/><path d="M400,-178L563,-16L567,-173Z" fill="#ffda86" stroke="#ffda86" stroke-width="1.51"/><path d="M238,-15L231,138L391,131Z" fill="#ffdd7e" stroke="#ffdd7e" stroke-width="1.51"/><path d="M391,131L231,138L392,297Z" fill="#fed470" stroke="#fed470" stroke-width="1.51"/><path d="M231,138L236,306L392,297Z" fill="#ffd06d" stroke="#ffd06d" stroke-width="1.51"/><path d="M238,-15L391,131L393,-13Z" fill="#ffdd80" stroke="#ffdd80" stroke-width="1.51"/><path d="M244,-187L238,-15L393,-13Z" fill="#ffe48f" stroke="#ffe48f" stroke-width="1.51"/><path d="M392,297L236,306L393,454Z" fill="#ffc45f" stroke="#ffc45f" stroke-width="1.51"/><path d="M236,306L244,464L393,454Z" fill="#ffc160" stroke="#ffc160" stroke-width="1.51"/><path d="M244,773L245,939L393,937Z" fill="#fa904a" stroke="#fa904a" stroke-width="1.51"/><path d="M393,937L245,939L393,1102Z" fill="#f18646" stroke="#f18646" stroke-width="1.51"/><path d="M245,939L241,1102L393,1102Z" fill="#eb864b" stroke="#eb864b" stroke-width="1.51"/><path d="M241,1102L243,1252L393,1102Z" fill="#e0824d" stroke="#e0824d" stroke-width="1.51"/><path d="M236,619L244,773L397,621Z" fill="#ffa454" stroke="#ffa454" stroke-width="1.51"/><path d="M393,454L244,464L397,621Z" fill="#ffb558" stroke="#ffb558" stroke-width="1.51"/><path d="M244,464L236,619L397,621Z" fill="#ffb159" stroke="#ffb159" stroke-width="1.51"/><path d="M397,621L244,773L397,774Z" fill="#ff9b4e" stroke="#ff9b4e" stroke-width="1.51"/><path d="M244,773L393,937L397,774Z" fill="#fc914a" stroke="#fc914a" stroke-width="1.51"/><path d="M244,-187L393,-13L400,-178Z" fill="#ffe491" stroke="#ffe491" stroke-width="1.51"/><path d="M393,1102L243,1252L408,1254Z" fill="#d77c4a" stroke="#d77c4a" stroke-width="1.51"/><path d="M81,-16L76,136L231,138Z" fill="#ffe188" stroke="#ffe188" stroke-width="1.51"/><path d="M76,136L80,304L231,138Z" fill="#ffda7d" stroke="#ffda7d" stroke-width="1.51"/><path d="M75,612L86,773L236,619Z" fill="#ffa95f" stroke="#ffa95f" stroke-width="1.51"/><path d="M231,138L80,304L236,306Z" fill="#ffd374" stroke="#ffd374" stroke-width="1.51"/><path d="M80,304L77,456L236,306Z" fill="#ffca6d" stroke="#ffca6d" stroke-width="1.51"/><path d="M81,-16L231,138L238,-15Z" fill="#ffe28a" stroke="#ffe28a" stroke-width="1.51"/><path d="M86,-176L81,-16L238,-15Z" fill="#ffe998" stroke="#ffe998" stroke-width="1.51"/><path d="M241,1102L88,1099L243,1252Z" fill="#e28553" stroke="#e28553" stroke-width="1.51"/><path d="M88,1099L75,1257L243,1252Z" fill="#d98457" stroke="#d98457" stroke-width="1.51"/><path d="M86,-176L238,-15L244,-187Z" fill="#ffea9b" stroke="#ffea9b" stroke-width="1.51"/><path d="M75,612L236,619L244,464Z" fill="#ffb561" stroke="#ffb561" stroke-width="1.51"/><path d="M77,456L75,612L244,464Z" fill="#ffbd66" stroke="#ffbd66" stroke-width="1.51"/><path d="M236,306L77,456L244,464Z" fill="#ffc467" stroke="#ffc467" stroke-width="1.51"/><path d="M236,619L86,773L244,773Z" fill="#ffa058" stroke="#ffa058" stroke-width="1.51"/><path d="M86,773L84,936L244,773Z" fill="#fe9957" stroke="#fe9957" stroke-width="1.51"/><path d="M88,1099L241,1102L245,939Z" fill="#ed8951" stroke="#ed8951" stroke-width="1.51"/><path d="M84,936L88,1099L245,939Z" fill="#f38d53" stroke="#f38d53" stroke-width="1.51"/><path d="M244,773L84,936L245,939Z" fill="#fb9351" stroke="#fb9351" stroke-width="1.51"/><path d="M-76,1098L-85,1253L75,1257Z" fill="#da8961" stroke="#da8961" stroke-width="1.51"/><path d="M-79,462L-82,624L75,612Z" fill="#ffbc6f" stroke="#ffbc6f" stroke-width="1.51"/><path d="M-77,133L-87,291L76,136Z" fill="#ffdf88" stroke="#ffdf88" stroke-width="1.51"/><path d="M-79,462L75,612L77,456Z" fill="#ffc06d" stroke="#ffc06d" stroke-width="1.51"/><path d="M76,136L-87,291L80,304Z" fill="#ffd87f" stroke="#ffd87f" stroke-width="1.51"/><path d="M-79,462L77,456L80,304Z" fill="#ffc972" stroke="#ffc972" stroke-width="1.51"/><path d="M-87,291L-79,462L80,304Z" fill="#ffd078" stroke="#ffd078" stroke-width="1.51"/><path d="M-77,133L76,136L81,-16Z" fill="#ffe590" stroke="#ffe590" stroke-width="1.51"/><path d="M-76,-27L-77,133L81,-16Z" fill="#ffe998" stroke="#ffe998" stroke-width="1.51"/><path d="M-77,932L-76,1098L84,936Z" fill="#f5935d" stroke="#f5935d" stroke-width="1.51"/><path d="M-82,785L-77,932L84,936Z" fill="#fd995f" stroke="#fd995f" stroke-width="1.51"/><path d="M75,612L-82,624L86,773Z" fill="#ffac65" stroke="#ffac65" stroke-width="1.51"/><path d="M-82,624L-82,785L86,773Z" fill="#ffa666" stroke="#ffa666" stroke-width="1.51"/><path d="M-82,785L84,936L86,773Z" fill="#ff9c5d" stroke="#ff9c5d" stroke-width="1.51"/><path d="M-76,-27L81,-16L86,-176Z" fill="#ffeca0" stroke="#ffeca0" stroke-width="1.51"/><path d="M-89,-177L-76,-27L86,-176Z" fill="#fff0aa" stroke="#fff0aa" stroke-width="1.51"/><path d="M84,936L-76,1098L88,1099Z" fill="#ef8f5b" stroke="#ef8f5b" stroke-width="1.51"/><path d="M-76,1098L75,1257L88,1099Z" fill="#e38a5d" stroke="#e38a5d" stroke-width="1.51"/><path d="M-236,-189L-238,-20L-89,-177Z" fill="#fff5b4" stroke="#fff5b4" stroke-width="1.51"/><path d="M-247,293L-234,461L-87,291Z" fill="#ffd483" stroke="#ffd483" stroke-width="1.51"/><path d="M-246,148L-247,293L-87,291Z" fill="#ffde8e" stroke="#ffde8e" stroke-width="1.51"/><path d="M-247,1108L-235,1265L-85,1253Z" fill="#db8d6b" stroke="#db8d6b" stroke-width="1.51"/><path d="M-234,461L-236,628L-82,624Z" fill="#ffbf78" stroke="#ffbf78" stroke-width="1.51"/><path d="M-82,624L-236,628L-82,785Z" fill="#ffb06f" stroke="#ffb06f" stroke-width="1.51"/><path d="M-236,628L-239,779L-82,785Z" fill="#ffaa70" stroke="#ffaa70" stroke-width="1.51"/><path d="M-234,461L-82,624L-79,462Z" fill="#ffc478" stroke="#ffc478" stroke-width="1.51"/><path d="M-87,291L-234,461L-79,462Z" fill="#ffcd7d" stroke="#ffcd7d" stroke-width="1.51"/><path d="M-246,148L-87,291L-77,133Z" fill="#ffe28f" stroke="#ffe28f" stroke-width="1.51"/><path d="M-238,-20L-246,148L-77,133Z" fill="#ffea9e" stroke="#ffea9e" stroke-width="1.51"/><path d="M-82,785L-239,779L-77,932Z" fill="#ffa068" stroke="#ffa068" stroke-width="1.51"/><path d="M-239,779L-241,943L-77,932Z" fill="#ff9e6a" stroke="#ff9e6a" stroke-width="1.51"/><path d="M-247,1108L-85,1253L-76,1098Z" fill="#e48f68" stroke="#e48f68" stroke-width="1.51"/><path d="M-77,932L-241,943L-76,1098Z" fill="#f69564" stroke="#f69564" stroke-width="1.51"/><path d="M-241,943L-247,1108L-76,1098Z" fill="#f09569" stroke="#f09569" stroke-width="1.51"/><path d="M-238,-20L-77,133L-76,-27Z" fill="#ffeca0" stroke="#ffeca0" stroke-width="1.51"/><path d="M-89,-177L-238,-20L-76,-27Z" fill="#fff1aa" stroke="#fff1aa" stroke-width="1.51"/><path d="M-247,293L-236,628L-234,461Z" fill="#ffcb82" stroke="#ffcb82" stroke-width="1.51"/><path d="M-247,293L-239,779L-236,628Z" fill="#ffc17c" stroke="#ffc17c" stroke-width="1.51"/><path d="M-246,148L-238,-20L-236,-189Z" fill="#fff1ad" stroke="#fff1ad" stroke-width="1.51"/><path d="M-247,1108L-241,943L-239,779Z" fill="#fc9b6b" stroke="#fc9b6b" stroke-width="1.51"/><path d="M-247,293L-247,1108L-239,779Z" fill="#ffad74" stroke="#ffad74" stroke-width="1.51"/></svg>